<?xml version="1.0" encoding="utf-8"?>
<!-- Generator: Adobe Illustrator 27.3.1, SVG Export Plug-In . SVG Version: 6.00 Build 0)  -->
<svg version="1.1" id="Layer_1" xmlns="http://www.w3.org/2000/svg" xmlns:xlink="http://www.w3.org/1999/xlink" x="0px" y="0px"
	 viewBox="0 0 432.47 369.06" style="enable-background:new 0 0 432.47 369.06;" xml:space="preserve">
<style type="text/css">
	.st0{fill:#38CB89;}
</style>
<g>
	<path class="st0" d="M0,211.26c5.14,1.73,7.92-1.56,10.97-4.32c15.63-14.12,31.26-28.22,46.92-42.3
		c12.19-10.97,24.4-21.92,36.67-32.82c0.83-0.74,2.13-1.25,3.25-1.32c3.12-0.2,6.25-0.14,9.38-0.14
		c74.97-0.01,149.93,0.01,224.9-0.07c3.33,0,5.62,1.24,8.03,3.42c26.77,24.21,53.64,48.3,80.48,72.42c0.17,0.15,0.34,0.3,0.51,0.46
		c3.16,2.87,6.05,6.32,11.23,4.74c0.05,1.15,0.12,1.89,0.12,2.63c0,42.03,0.02,84.06,0,126.09c-0.01,13.69-7.51,24.25-19.89,27.7
		c-2.97,0.83-6.16,1.25-9.25,1.26c-124.89,0.06-249.78,0.06-374.68,0.05c-13.4,0-24.44-8.22-27.72-20.67
		c-0.58-2.19-0.89-4.51-0.89-6.77C-0.01,298.96,0,256.32,0,213.68C0,213.08,0,212.48,0,211.26z M17.83,229.39c0,1.08,0,1.83,0,2.58
		c-0.01,36.08-0.03,72.17-0.04,108.25c0,7.5,3.57,11.05,11.09,11.05c76.95-0.01,153.91-0.02,230.86-0.02
		c47.94,0,95.89,0.02,143.83,0.01c7.71,0,11.15-3.39,11.14-10.96c0-36.16-0.05-72.32-0.03-108.47c0-1.82-0.42-2.48-2.41-2.47
		c-33.06,0.06-66.11,0.04-99.17,0.03c-1.83,0-3.68,0.09-5.49-0.15c-1.59-0.21-2.13,0.29-2.41,1.82
		c-4.99,27.32-29.4,47.71-57.18,47.77c-20.23,0.04-40.46,0.02-60.69-0.03c-3.43-0.01-6.89-0.08-10.28-0.54
		c-25.03-3.35-44.88-22.05-49.74-46.8c-0.34-1.71-1.02-2.11-2.71-2.11C90.32,229.4,19.36,229.39,17.83,229.39z M399.65,211.57
		c-0.18-0.51-0.18-0.61-0.23-0.65c-22.58-20.41-45.15-40.83-67.78-61.18c-0.91-0.82-2.42-1.33-3.66-1.34
		c-12.59-0.09-25.19-0.05-37.78-0.05c-60.99-0.01-121.98-0.03-182.97-0.05c-2.76,0-5.18,0.18-7.53,2.31
		c-19.97,18.18-40.09,36.21-60.15,54.29c-2.23,2.01-4.41,4.1-7.14,6.65c37.58,0,74.44,0,111.51,0c0,3.81-0.07,7.31,0.02,10.8
		c0.13,5.56,1.42,10.89,3.98,15.83c7.79,15,20.32,22.6,37.1,22.79c20.91,0.23,41.83,0.06,62.75,0.06c10.7,0,20.04-3.6,27.82-10.92
		c8.39-7.9,12.92-17.59,13-29.22c0.02-3.02,0-6.05,0-9.29C325.77,211.57,362.59,211.57,399.65,211.57z"/>
	<rect x="207.03" class="st0" width="18.43" height="58.36"/>
	
		<rect x="290.4" y="8.82" transform="matrix(0.8406 0.5416 -0.5416 0.8406 68.3272 -156.2197)" class="st0" width="18.43" height="58.36"/>
	
		<rect x="128.17" y="8.82" transform="matrix(0.8632 -0.5049 0.5049 0.8632 -0.3887 74.5536)" class="st0" width="18.43" height="58.36"/>
</g>
</svg>
