<?xml version="1.0" encoding="UTF-8"?>
<svg version="1.1" viewBox="0 0 1440 1440" width="360" height="360" xmlns="http://www.w3.org/2000/svg">
<path transform="translate(0)" d="m0 0h1440v1440h-1440z" fill="#f1f3f5"/>
<path transform="translate(418,349)" d="m0 0h29l22 4 14 4 13 5 16 8 14 8 14 11 12 11 11 12 9 13 8 13 7 15 8 24 4 22 2 55 3 22 5 17 8 18 11 18 8 10 10 11 14 11 14 9 19 9 18 6 15 3 8 1h22l17-2 19-5 15-6 17-9 13-9 12-11 11-11 1-4-128-1-16-4-17-8-9-7-6-5-9-11-6-9-6-12-4-13-2-15v-11l3-17 5-14 6-11 13-16 13-10 14-7 11-4 9-2 10-1h11l17 3 13 5 18 10 11 10 11 15 7 13v3l-14 1-77 1-9 5-5 4-4 7-2 7v11l4 10 5 6 8 5 3 1 212 1-1 11-5 19-6 17-8 18-8 14-14 20-12 14-13 13-14 11-15 10-16 9-24 10-20 6-22 4-10 1h-29l-25-3-25-6-17-6-17-8-17-10-17-13-15-14-9-9-11-14-10-15-10-18-9-21-6-20-4-22-2-24-1-37-2-15-5-17-10-19-9-11-9-10-15-11-15-8-18-6-11-2-24-2-9-3-9-7-5-8-2-7v-11l4-10 5-6 10-6z" fill="#ec5e2a"/>
<path transform="translate(725,337)" d="m0 0h43l28 5 20 6 25 11 16 9 13 9 11 9 10 9 9 9 9 11 9 12 13 22 8 18 6 18 6 24v4l-14 1h-36l-10-1-3-8-7-20-7-15-7-12-9-11-6-6v-2l-4-2-11-10-12-8-19-10-13-5-20-5-15-2h-26l-18 3-20 6-16 8-9 5-14 10-12 11-5 5-9 10-3-1-5-16-11-26-8-13 1-5 12-11 18-13 15-9 16-8 19-7 17-5z" fill="#ec5e2a"/>
<path transform="translate(1018,930)" d="m0 0 15 1 12 4 10 6 9 8 9 14 4 11 2 18-2 16-5 14-8 11-9 9-11 6-7 3-5 1h-20l-13-4-12-6v61l-2 1h-34l-1-1v-169h37v6l2 1 11-7 10-3z" fill="#24394A"/>
<path transform="translate(859,931)" d="m0 0h18l16 4 12 6 11 9 8 11 5 11 2 8v22l-3 12-7 13-7 8-13 9-11 5-13 3h-17l-14-3-16-8-12-11-6-9-5-11-2-9v-19l3-12 6-12 9-10 7-6 16-8z" fill="#24394A"/>
<path transform="translate(672,873)" d="m0 0h36v70l9-6 8-4 7-2 14-1 11 2 10 4 10 9 6 9 4 13v82h-36l-1-68-3-9-7-6-2-1h-13l-8 4-6 9-2 7-1 61-1 3h-36v-175z" fill="#24394A"/>
<path transform="translate(410,931)" d="m0 0h24l13 4 11 6 12 12 6 10 5 16 1 7v14l-1 1h-83l3 8 6 8 7 4 4 1h8l9-2 6-4 5-6 9 1 21 4 3 1-2 6-7 10-4 5-13 9-15 5-5 1h-20l-12-3-14-7-12-11-7-10-5-13-1-4v-24l4-14 7-12 8-9 14-9 11-4z" fill="#24394A"/>
<path transform="translate(594,930)" d="m0 0 17 1 12 3 11 6 10 9 6 12-1 3-13 3-15 3-5-1-5-8-7-3h-13l-5 4-1 6 4 4 19 4 15 3 13 5 10 9 5 11 1 13-2 10-6 10-11 8-12 5-9 2h-23l-15-3-14-7-5-4-6-8-3-7v-5l29-6h7l4 8 5 3 4 1h10l7-2 3-3 1-4-1-3-5-3-31-6-12-4-10-7-6-8-2-6-1-11 2-10 4-8 6-7 9-6 11-4z" fill="#24394A"/>
<path transform="translate(1009,962)" d="m0 0h12l8 3 8 7 4 8 1 3v17l-4 9-6 7-8 4-3 1h-13l-10-5-7-8-4-10v-14l4-9 7-8 7-4z" fill="#f1f3f5"/>
<path transform="translate(862,962)" d="m0 0h12l10 4 7 7 4 8 1 4v13l-4 9-6 8-9 5-3 1h-12l-9-4-6-5-5-9-2-7v-9l3-10 7-9 9-5z" fill="#f1f3f5"/>
<path transform="translate(805,764)" d="m0 0 10 1 10 5 7 8 4 10v9l-3 7-4 6-7 6-8 3h-10l-10-4-6-5-5-8-1-4v-14l4-8 4-5h2v-2l8-4z" fill="#ec5e2a"/>
<path transform="translate(676,765)" d="m0 0h16l8 4 7 7 5 11v10l-4 10-7 7-9 4-4 1h-8l-9-4-8-7-4-7-2-12 3-10 5-7 9-6z" fill="#ec5e2a"/>
<path transform="translate(419,960)" d="m0 0h7l8 3 8 7 3 4v4h-46l1-5 6-7 10-5z" fill="#f1f3f5"/>
</svg>
