<?xml version="1.0" encoding="utf-8"?>
<!-- Generator: Adobe Illustrator 27.3.1, SVG Export Plug-In . SVG Version: 6.00 Build 0)  -->
<svg version="1.1" id="Layer_1" xmlns="http://www.w3.org/2000/svg" xmlns:xlink="http://www.w3.org/1999/xlink" x="0px" y="0px"
	 viewBox="0 0 397.5 121.8" style="enable-background:new 0 0 397.5 121.8;" xml:space="preserve">
<style type="text/css">
	.st0{fill:#EC5E2A;}
	.st1{fill:#24394A;}
</style>
<g>
	<g>
		<path class="st0" d="M131.8,59.4c-2.7,0-5.6,0-8.3,0c-3.2,0-6.4,0-9.6,0s-6.5,0-9.7,0c-2.8,0-5.8,0-8.6,0c-2.1,0-4.2,0-6.4,0
			c-0.5,0-1,0-1.5,0c-0.8,0-1.4,0-2.2-0.3h-0.1c-0.7-0.3-1.3-0.6-1.8-1.1c-1.1-0.9-1.8-2.2-2.2-3.5c-0.5-1.7-0.4-3.5,0.3-5.2
			s2-2.9,3.6-3.6c1.4-0.6,2.9-0.6,4.4-0.5s3.1,0,4.6,0c3.1,0,6.2-0.1,9.3-0.1c0.6,0,1.3,0,1.9,0l3.5-0.2v-0.7c0,0-1.7-3.2-1.8-3.2
			c-3.7-7-12.5-11.2-20.2-10.8c-7.3,0.3-14.1,4.3-18.1,10.5c-3.8,6.2-4.4,14.1-1.6,20.8c1.8,4.1,5.1,7.8,8.9,10.2
			c4.4,2.8,8.9,3.3,14,3.3c4.4,0,8.9,0.1,13.3,0.1s8.8,0.1,13.2,0.1h0.1l-0.2,1l-2.8,2.8l-3,2.8l-3.2,2.2l-4.2,2.2l-3.8,1.5
			l-4.9,1.2l-4.2,0.5h-5.6l-2-0.2l-3.8-0.8l-4.5-1.5l-4.9-2.2l-3.5-2.2l-3.5-2.8l-2.5-2.8l-2-2.5l-2.8-4.5l-2-4.5l-1.2-4.2l-0.8-5.6
			l-0.5-13.8l-1-5.6l-2-6.1l-1.8-3.8l-2-3.2l-2.2-3.2l-2.8-3l-3-2.8l-3.5-2.8l-3.5-2l-4-2l-3.2-1.2l-3.5-1l-5.6-1H5.5L4.7,4.3
			L2.2,5.8L1,7.3L0,9.8v2.8l0.5,1.8l1.2,2l2.2,1.8L6.1,19l6.1,0.5L15,20l4.5,1.5l3.8,2l3.8,2.8l2.3,2.5l2.2,2.8l2.5,4.9l1.2,4.2
			l0.5,3.8l0.2,9.3l0.5,6.1l1,5.6l1.5,5.1l2.2,5.3l2.5,4.5l2.5,3.8l2.8,3.5l2.2,2.2l3.8,3.5l4.2,3.2l4.2,2.5l4.2,2l4.2,1.5l6.3,1.5
			l6.3,0.8h7.3l2.5-0.2l5.6-1l5.1-1.5l6.1-2.5l4-2.2l3.8-2.5l3.5-2.8l3.2-3.2l3-3.5l3.5-5.1l2-3.5l2-4.5l1.5-4.2l1.2-4.9l0.2-2.8
			c-0.7,0-1.5,0-2.2,0C135.6,59.4,133.7,59.4,131.8,59.4z"/>
		<path class="st0" d="M58.4,30.1c8.5-11.3,23.9-17.1,37.7-14c13.8,3,25.4,14.7,28.4,28.5c5.1,0.3,10.2,0.3,15.4,0
			c-0.3-2.4-0.9-4.7-1.6-7.1c-4-13.5-13.7-25.5-26.5-31.9c-13.1-6.7-29.2-7.4-43-2c-1.9,0.7-3.8,1.6-5.7,2.6c0,0-3.7,2.2-3.8,2.2
			c-2.3,1.4-4.6,3.3-6.7,5.2c-0.4,0.4-0.9,0.8-0.9,1.4c0,0.4,0.1,0.8,0.3,1.2C54.3,20.8,56.3,25.5,58.4,30.1z"/>
		<path class="st0" d="M107.9,109.6c-0.1-0.1-0.3-0.2-0.4-0.3c-1.2-0.8-2.6-1.1-4-1.1c-1.2,0-2.5,0.4-3.5,1.1
			c-1,0.8-1.8,1.9-2.2,3.1c-0.8,2.3-0.7,5.3,1.1,7.2c1.7,1.8,4.4,2.7,6.9,2s4.5-2.9,5-5.6C110.9,113.6,109.8,111.1,107.9,109.6z"/>
		<path class="st0" d="M76.9,109.8c-0.2-0.2-0.4-0.3-0.6-0.5c-1.7-1.1-3.9-1.5-5.9-0.9c-2.2,0.7-4,2.5-4.5,4.7
			c-1.2,4.9,3.6,9.7,8.5,8.4c2.4-0.6,4.3-2.7,4.9-5.1C79.7,114.1,78.8,111.4,76.9,109.8z"/>
	</g>
	<g>
		<polygon class="st1" points="304.2,47.5 301.1,44.6 298,43.4 294.7,42.8 290.4,43.1 288.1,43.8 285.7,45 282.9,46.9 282.9,25.2 
			271.8,25.2 271.4,25.5 271.4,79.6 282.6,79.6 282.9,78.7 283.2,59.8 283.8,57.6 285.7,54.9 288.1,53.7 292.2,53.7 292.8,53.9 
			294.9,55.8 295.9,58.6 296.2,79.6 307.3,79.6 307.3,54.3 306.1,50.2 		"/>
		<polygon class="st1" points="263.8,62.3 260.7,59.5 256.6,58 252,57 246.1,55.8 244.8,54.5 245.2,52.7 246.7,51.4 250.8,51.4 
			252.9,52.4 254.5,54.9 256,55.1 260.7,54.3 264.6,53.3 265,52.4 263.2,48.7 260.1,45.9 256.6,44 252.9,43.1 247.7,42.8 
			243.4,43.4 239.9,44.6 237.2,46.5 235.3,48.7 234.1,51.2 233.5,54.3 233.7,57.6 234.3,59.5 236.2,62 239.3,64.2 243,65.4 
			252.6,67.3 254.1,68.1 254.5,69.1 254.1,70.4 253.3,71.2 251,71.8 247.9,71.8 246.7,71.6 245.2,70.6 244,68.1 241.7,68.1 
			232.8,70 232.8,71.6 233.7,73.7 235.6,76.2 237.2,77.4 241.5,79.6 246.1,80.5 253.3,80.5 256,79.9 259.7,78.4 263.2,75.9 
			265,72.8 265.6,69.7 265.3,65.7 		"/>
		<path class="st1" d="M397,56.4l-1.2-3.5l-2.7-4.3l-2.7-2.5l-3.1-1.9l-3.7-1.2l-4.7-0.2l-2.5,0.2l-3.1,1l-3.5,2.2l-0.6-0.2v-1.9
			h-11.4v52.2l0.2,0.2h10.5l0.6-0.2V77.5l3.7,1.9l4,1.2h6.2l1.5-0.2l2.2-1l3.5-1.9l2.7-2.7l2.5-3.3l1.5-4.3l0.6-4.9L397,56.4z
			 M386.3,64.4l-1.2,2.7l-1.9,2.2l-2.5,1.2l-1,0.2h-4l-3.1-1.5l-2.2-2.5l-1.2-3.1v-4.3l1.2-2.7l2.2-2.5l2.2-1.2l1.2-0.2h3.7l2.5,1
			l2.5,2.2l1.2,2.5l0.2,1L386.3,64.4L386.3,64.4z"/>
		<path class="st1" d="M349.8,52.4l-2.5-3.5l-3.5-2.7l-3.7-1.9l-4.9-1.2h-5.6l-4,1l-4.9,2.5l-2.2,1.9l-2.7,3.1l-1.9,3.7l-1,3.7v5.9
			l0.6,2.7l1.5,3.5l1.9,2.7l3.7,3.5l4.9,2.5l4.3,1h5.2l4-1l3.5-1.5l4-2.7l2.2-2.5l2.2-4l1-3.7v-6.8l-0.6-2.5L349.8,52.4z
			 M341.1,63.8l-1.2,2.7L338,69l-2.7,1.5l-1,0.2h-3.7l-2.7-1.2L326,68l-1.5-2.7l-0.6-2.2v-2.7l1-3.1l2.2-2.7l2.7-1.5l1-0.2h3.7
			l3.1,1.2l2.2,2.2l1.2,2.5l0.2,1.2v3.8C341.2,63.8,341.1,63.8,341.1,63.8z"/>
		<path class="st1" d="M211.2,53l-1.9-3.1l-3.7-3.7l-3.5-1.9l-4-1.2h-7.4l-1.2,0.2l-3.5,1.2l-4.3,2.7l-2.5,2.7l-2.2,3.7l-1.2,4.3
			v7.4l0.2,1.2l1.5,4l2.2,3.1l3.7,3.5l4.3,2.2l3.7,1h6.2l1.5-0.2l4.7-1.5l4-2.7l1.2-1.5l2.2-3.1l0.6-1.9l-1-0.2l-6.4-1.2l-2.7-0.2
			l-1.5,1.9l-1.9,1.2l-2.7,0.6h-2.5l-1.2-0.2l-2.2-1.2l-1.9-2.5l-1-2.5h25.7l0.2-0.2v-4.3l-0.2-2.2L211.2,53z M201.5,57.6h-14.2
			l0.2-1.5l1.9-2.2l3.1-1.5l1-0.2h2.2l2.5,1l2.5,2.2l1,1.2v1H201.5z"/>
	</g>
</g>
</svg>
