<?xml version="1.0" encoding="utf-8"?>
<!-- Generator: Adobe Illustrator 27.3.1, SVG Export Plug-In . SVG Version: 6.00 Build 0)  -->
<svg version="1.1" id="Layer_1" xmlns="http://www.w3.org/2000/svg" xmlns:xlink="http://www.w3.org/1999/xlink" x="0px" y="0px"
	 viewBox="0 0 592.36 416.17" style="enable-background:new 0 0 592.36 416.17;" xml:space="preserve">
<style type="text/css">
	.st0{fill:#38CB89;}
</style>
<g>
	<g>
		<g>
			<path class="st0" d="M562.18,348.77H165.25c-4.76,0-8.6-3.21-8.6-7.14s3.84-7.14,8.6-7.14h396.93c4.76,0,8.6,3.21,8.6,7.14
				S566.94,348.77,562.18,348.77z"/>
		</g>
	</g>
	<g>
		<g>
			<path class="st0" d="M157.51,342.25L58.37,17.57c-1.31-4.57,0.73-9.15,4.52-10.22c3.79-1.07,7.93,1.73,9.21,6.31l99.14,324.66
				c1.31,4.57-0.73,9.15-4.52,10.22C162.94,349.62,158.79,346.78,157.51,342.25z"/>
		</g>
	</g>
	<g>
		<g>
			<path class="st0" d="M211.64,374.77c7.46,0,13.57,6.07,13.57,13.57c0,7.46-6.07,13.57-13.57,13.57
				c-7.46,0-13.57-6.07-13.57-13.57C198.07,380.88,204.14,374.77,211.64,374.77 M211.64,360.51c-15.36,0-27.83,12.47-27.83,27.83
				s12.47,27.83,27.83,27.83s27.83-12.47,27.83-27.83C239.46,372.98,227,360.51,211.64,360.51L211.64,360.51z"/>
		</g>
		<g>
			<path class="st0" d="M515.85,374.77c7.46,0,13.57,6.07,13.57,13.57c0,7.46-6.07,13.57-13.57,13.57
				c-7.46,0-13.57-6.07-13.57-13.57C502.28,380.88,508.34,374.77,515.85,374.77 M515.85,360.51c-15.36,0-27.83,12.47-27.83,27.83
				s12.47,27.83,27.83,27.83c15.36,0,27.83-12.47,27.83-27.83S531.21,360.51,515.85,360.51L515.85,360.51z"/>
		</g>
	</g>
	<g>
		<path class="st0" d="M65.77,20.65c-0.28,0-0.52,0-0.79-0.03L6.36,14.22c-3.93-0.42-6.73-3.97-6.31-7.87
			c0.42-3.93,3.93-6.73,7.87-6.31l58.62,6.39c3.93,0.42,6.73,3.97,6.31,7.87C72.46,17.98,69.35,20.65,65.77,20.65z"/>
	</g>
	<path class="st0" d="M313.55,310.23c9.28-8.18,18.54-17.29,28.06-27.55c15.88-17.23,30.27-35.15,44.12-52.78l13.94,48.94
		l68.11-162.83l-165.73,69.84l53.17,13.11c-17.23,16.04-33.79,31.21-51.34,45.09c-13.7,10.85-26.5,19.61-39.11,26.76
		c-13.87,7.93-26.62,12.95-37.9,15.02c-3.76,0.65-7.32,0.97-10.49,0.97c-1.65,0-3.24-0.1-4.73-0.28c-4.63-0.55-8.35-1.68-12.16-3.59
		c-6.39-3.21-10.67-9.18-11.7-16.16c-1.49-9.97-2.93-18.96-5.63-28.06L136.39,84.1c-0.37-1.18-0.42-2.38-0.18-3.32
		c2.38-9.57,9.29-16.29,16.84-16.29h422.3c7.56,0,14.49,6.73,16.85,16.37c0.24,1.04,0.21,2.28-0.1,3.53l-43.39,173.66
		c-2.48,9.94-4.32,20.71-5.52,31.93c-1.18,11.36-8.9,20.24-17.57,20.24H313.55V310.23z"/>
</g>
</svg>
